<svg xmlns="http://www.w3.org/2000/svg" xmlns:xlink="http://www.w3.org/1999/xlink" width="500" zoomAndPan="magnify" viewBox="0 0 375 374.999991" height="500" preserveAspectRatio="xMidYMid meet" version="1.0"><defs><g/><clipPath id="f597bdae46"><path d="M 36.824219 131.25 L 337.492188 131.25 L 337.492188 243.75 L 36.824219 243.75 Z M 36.824219 131.25 " clip-rule="nonzero"/></clipPath><clipPath id="07b4621f7c"><path d="M 96.925781 148.898438 L 135.175781 148.898438 L 135.175781 187.148438 L 96.925781 187.148438 Z M 96.925781 148.898438 " clip-rule="nonzero"/></clipPath><clipPath id="fdb66a4a68"><path d="M 116.226562 148.898438 C 105.566406 148.898438 96.925781 157.539062 96.925781 168.199219 C 96.925781 178.855469 105.566406 187.5 116.226562 187.5 C 126.886719 187.5 135.527344 178.855469 135.527344 168.199219 C 135.527344 157.539062 126.886719 148.898438 116.226562 148.898438 Z M 116.226562 148.898438 " clip-rule="nonzero"/></clipPath><clipPath id="4931e2a66d"><path d="M 78 70 L 134 70 L 134 152 L 78 152 Z M 78 70 " clip-rule="nonzero"/></clipPath><clipPath id="a865204d3d"><path d="M 130.238281 67.167969 L 140.867188 145.957031 L 82.148438 153.875 L 71.519531 75.089844 Z M 130.238281 67.167969 " clip-rule="nonzero"/></clipPath><clipPath id="b8890b94a7"><path d="M 71.777344 75.054688 L 82.40625 153.84375 L 141.121094 145.921875 L 130.496094 67.136719 Z M 71.777344 75.054688 " clip-rule="nonzero"/></clipPath><clipPath id="691bf7ff6c"><path d="M 140.902344 79.179688 L 152.027344 79.179688 L 152.027344 90.304688 L 140.902344 90.304688 Z M 140.902344 79.179688 " clip-rule="nonzero"/></clipPath><clipPath id="0ee0939afd"><path d="M 146.578125 79.179688 C 143.445312 79.179688 140.902344 81.71875 140.902344 84.855469 C 140.902344 87.992188 143.445312 90.53125 146.578125 90.53125 C 149.714844 90.53125 152.253906 87.992188 152.253906 84.855469 C 152.253906 81.71875 149.714844 79.179688 146.578125 79.179688 Z M 146.578125 79.179688 " clip-rule="nonzero"/></clipPath></defs><g clip-path="url(#f597bdae46)"><path stroke-linecap="butt" transform="matrix(0.75, 0, 0, 0.75, 36.824885, 131.251323)" fill="none" stroke-linejoin="miter" d="M -0.000888283 -0.00176451 L 400.889789 -0.00176451 L 400.889789 149.998255 L -0.000888283 149.998255 Z M -0.000888283 -0.00176451 " stroke="#b3b3b3" stroke-width="8" stroke-opacity="1" stroke-miterlimit="4"/></g><g clip-path="url(#07b4621f7c)"><g clip-path="url(#fdb66a4a68)"><path stroke-linecap="butt" transform="matrix(0.75, 0, 0, 0.75, 96.926211, 148.897094)" fill="none" stroke-linejoin="miter" d="M 25.733804 0.00179104 C 11.520261 0.00179104 -0.000572914 11.522625 -0.000572914 25.736168 C -0.000572914 39.944502 11.520261 51.470544 25.733804 51.470544 C 39.947346 51.470544 51.46818 39.944502 51.46818 25.736168 C 51.46818 11.522625 39.947346 0.00179104 25.733804 0.00179104 Z M 25.733804 0.00179104 " stroke="#b3b3b3" stroke-width="8" stroke-opacity="1" stroke-miterlimit="4"/></g></g><g clip-path="url(#4931e2a66d)"><g clip-path="url(#a865204d3d)"><g clip-path="url(#b8890b94a7)"><path fill="#0038ff" d="M 113.367188 91.4375 C 112.734375 92.167969 112.167969 92.753906 111.679688 93.402344 C 110.0625 95.5625 108.359375 97.667969 106.914062 99.941406 C 105.359375 102.390625 106.285156 105.488281 108.707031 107.226562 C 109.308594 107.660156 109.597656 108.53125 110.078125 109.28125 C 110.984375 109.511719 111.25 108.640625 111.664062 108.066406 C 115.414062 102.878906 120.09375 98.605469 125.148438 94.769531 C 127.078125 93.300781 129.296875 92.191406 131.421875 90.988281 C 133.089844 90.042969 133.328125 89.921875 132.914062 88.015625 C 132.175781 84.621094 130.605469 81.789062 127.359375 80.023438 C 121.722656 76.949219 116.261719 73.546875 110.125 71.5 C 109.125 71.171875 108.085938 70.964844 106.460938 70.546875 C 107.347656 73.292969 107.640625 75.613281 110.082031 76.800781 C 111.578125 77.527344 113.054688 78.273438 115.101562 79.277344 C 113.171875 79.867188 111.839844 80.246094 110.523438 80.671875 C 100.613281 83.886719 92 89.210938 86.054688 97.820312 C 80.636719 105.652344 77.34375 114.441406 78.546875 124.285156 C 79.566406 132.550781 83.753906 139.199219 89.789062 144.691406 C 92.207031 146.886719 95.039062 148.640625 97.734375 150.515625 C 98.4375 151.003906 99.324219 151.203125 100.132812 151.535156 C 100.273438 151.34375 100.410156 151.15625 100.546875 150.96875 C 99.78125 150.039062 99.0625 149.0625 98.226562 148.203125 C 97.703125 147.667969 97.011719 147.289062 96.382812 146.863281 C 88.257812 141.425781 85.226562 133.582031 85.964844 124.132812 C 86.527344 116.914062 89.523438 110.609375 94.046875 105.039062 C 98.8125 99.15625 104.773438 94.800781 111.691406 91.734375 C 111.996094 91.597656 112.316406 91.476562 112.636719 91.378906 C 112.78125 91.347656 112.953125 91.402344 113.367188 91.4375 Z M 113.367188 91.4375 " fill-opacity="1" fill-rule="nonzero"/></g></g></g><path stroke-linecap="butt" transform="matrix(0.322877, -0.360223, 0.360223, 0.322877, 141.896158, 89.357493)" fill="none" stroke-linejoin="miter" d="M 0.00302514 1.001264 L 26.782691 0.995722 " stroke="#b3b3b3" stroke-width="2" stroke-opacity="1" stroke-miterlimit="4"/><g clip-path="url(#691bf7ff6c)"><g clip-path="url(#0ee0939afd)"><path stroke-linecap="butt" transform="matrix(0.483746, 0, 0, 0.483746, 140.902642, 79.179252)" fill="none" stroke-linejoin="miter" d="M 11.732371 0.000901092 C 5.256215 0.000901092 -0.000615814 5.249657 -0.000615814 11.733888 C -0.000615814 18.21812 5.256215 23.466876 11.732371 23.466876 C 18.216603 23.466876 23.465359 18.21812 23.465359 11.733888 C 23.465359 5.249657 18.216603 0.000901092 11.732371 0.000901092 Z M 11.732371 0.000901092 " stroke="#b3b3b3" stroke-width="6.201606" stroke-opacity="1" stroke-miterlimit="4"/></g></g><g fill="#b3b3b3" fill-opacity="1"><g transform="translate(152.257655, 89.550898)"><g><path d="M 6.109375 0 L 3.875 0 L 3.875 -6.109375 L 3.890625 -7.109375 L 3.9375 -8.203125 C 3.5625 -7.835938 3.300781 -7.597656 3.15625 -7.484375 L 1.953125 -6.5 L 0.875 -7.84375 L 4.265625 -10.546875 L 6.109375 -10.546875 Z M 6.109375 0 "/></g></g></g><g fill="#b3b3b3" fill-opacity="1"><g transform="translate(160.693871, 89.550898)"><g><path d="M 4.234375 -10.6875 C 5.242188 -10.6875 6.054688 -10.457031 6.671875 -10 C 7.285156 -9.539062 7.59375 -8.921875 7.59375 -8.140625 C 7.59375 -7.597656 7.441406 -7.113281 7.140625 -6.6875 C 6.847656 -6.269531 6.367188 -5.898438 5.703125 -5.578125 C 6.492188 -5.148438 7.0625 -4.707031 7.40625 -4.25 C 7.75 -3.789062 7.921875 -3.285156 7.921875 -2.734375 C 7.921875 -1.867188 7.582031 -1.171875 6.90625 -0.640625 C 6.226562 -0.117188 5.335938 0.140625 4.234375 0.140625 C 3.078125 0.140625 2.164062 -0.101562 1.5 -0.59375 C 0.84375 -1.082031 0.515625 -1.773438 0.515625 -2.671875 C 0.515625 -3.273438 0.675781 -3.8125 1 -4.28125 C 1.320312 -4.75 1.835938 -5.160156 2.546875 -5.515625 C 1.941406 -5.890625 1.503906 -6.296875 1.234375 -6.734375 C 0.972656 -7.171875 0.84375 -7.644531 0.84375 -8.15625 C 0.84375 -8.90625 1.15625 -9.515625 1.78125 -9.984375 C 2.40625 -10.453125 3.222656 -10.6875 4.234375 -10.6875 Z M 2.578125 -2.8125 C 2.578125 -2.394531 2.722656 -2.070312 3.015625 -1.84375 C 3.304688 -1.613281 3.703125 -1.5 4.203125 -1.5 C 4.753906 -1.5 5.164062 -1.613281 5.4375 -1.84375 C 5.71875 -2.082031 5.859375 -2.398438 5.859375 -2.796875 C 5.859375 -3.117188 5.71875 -3.421875 5.4375 -3.703125 C 5.164062 -3.984375 4.726562 -4.28125 4.125 -4.59375 C 3.09375 -4.125 2.578125 -3.53125 2.578125 -2.8125 Z M 4.21875 -9.0625 C 3.832031 -9.0625 3.519531 -8.960938 3.28125 -8.765625 C 3.050781 -8.566406 2.9375 -8.304688 2.9375 -7.984375 C 2.9375 -7.691406 3.03125 -7.429688 3.21875 -7.203125 C 3.40625 -6.972656 3.742188 -6.738281 4.234375 -6.5 C 4.703125 -6.71875 5.03125 -6.941406 5.21875 -7.171875 C 5.40625 -7.410156 5.5 -7.679688 5.5 -7.984375 C 5.5 -8.316406 5.378906 -8.578125 5.140625 -8.765625 C 4.898438 -8.960938 4.59375 -9.0625 4.21875 -9.0625 Z M 4.21875 -9.0625 "/></g></g></g><g fill="#b3b3b3" fill-opacity="1"><g transform="translate(273.786987, 51.819145)"><g><path d="M 5.8125 -8.84375 C 4.96875 -8.84375 4.3125 -8.523438 3.84375 -7.890625 C 3.382812 -7.253906 3.15625 -6.375 3.15625 -5.25 C 3.15625 -2.894531 4.039062 -1.71875 5.8125 -1.71875 C 6.550781 -1.71875 7.445312 -1.90625 8.5 -2.28125 L 8.5 -0.390625 C 7.632812 -0.0351562 6.664062 0.140625 5.59375 0.140625 C 4.0625 0.140625 2.890625 -0.320312 2.078125 -1.25 C 1.265625 -2.1875 0.859375 -3.523438 0.859375 -5.265625 C 0.859375 -6.359375 1.054688 -7.316406 1.453125 -8.140625 C 1.859375 -8.960938 2.429688 -9.59375 3.171875 -10.03125 C 3.921875 -10.476562 4.800781 -10.703125 5.8125 -10.703125 C 6.832031 -10.703125 7.863281 -10.453125 8.90625 -9.953125 L 8.171875 -8.140625 C 7.773438 -8.328125 7.378906 -8.488281 6.984375 -8.625 C 6.585938 -8.769531 6.195312 -8.84375 5.8125 -8.84375 Z M 5.8125 -8.84375 "/></g></g></g><g fill="#b3b3b3" fill-opacity="1"><g transform="translate(283.204661, 51.819145)"><g><path d="M 9.96875 0 L 7.75 0 L 7.75 -4.546875 L 3.5625 -4.546875 L 3.5625 0 L 1.328125 0 L 1.328125 -10.546875 L 3.5625 -10.546875 L 3.5625 -6.421875 L 7.75 -6.421875 L 7.75 -10.546875 L 9.96875 -10.546875 Z M 9.96875 0 "/></g></g></g><g fill="#b3b3b3" fill-opacity="1"><g transform="translate(294.513086, 51.819145)"><g/></g></g><g fill="#b3b3b3" fill-opacity="1"><g transform="translate(298.35232, 51.819145)"><g><path d="M 7.203125 -6.09375 L 6.875 -4.421875 L 8.734375 -4.421875 L 8.734375 -2.9375 L 6.59375 -2.9375 L 6.03125 0 L 4.453125 0 L 5.015625 -2.9375 L 3.609375 -2.9375 L 3.0625 0 L 1.515625 0 L 2.046875 -2.9375 L 0.328125 -2.9375 L 0.328125 -4.421875 L 2.328125 -4.421875 L 2.65625 -6.09375 L 0.84375 -6.09375 L 0.84375 -7.59375 L 2.9375 -7.59375 L 3.484375 -10.53125 L 5.0625 -10.53125 L 4.515625 -7.59375 L 5.9375 -7.59375 L 6.5 -10.53125 L 8.046875 -10.53125 L 7.484375 -7.59375 L 9.21875 -7.59375 L 9.21875 -6.09375 Z M 3.890625 -4.421875 L 5.3125 -4.421875 L 5.640625 -6.09375 L 4.234375 -6.09375 Z M 3.890625 -4.421875 "/></g></g></g><g fill="#b3b3b3" fill-opacity="1"><g transform="translate(307.899893, 51.819145)"><g><path d="M 0.515625 -4.484375 C 0.515625 -6.566406 0.957031 -8.117188 1.84375 -9.140625 C 2.726562 -10.160156 4.050781 -10.671875 5.8125 -10.671875 C 6.414062 -10.671875 6.882812 -10.632812 7.21875 -10.5625 L 7.21875 -8.78125 C 6.789062 -8.875 6.367188 -8.921875 5.953125 -8.921875 C 5.191406 -8.921875 4.566406 -8.804688 4.078125 -8.578125 C 3.597656 -8.347656 3.238281 -8.003906 3 -7.546875 C 2.757812 -7.097656 2.613281 -6.457031 2.5625 -5.625 L 2.65625 -5.625 C 3.132812 -6.445312 3.898438 -6.859375 4.953125 -6.859375 C 5.890625 -6.859375 6.625 -6.5625 7.15625 -5.96875 C 7.695312 -5.375 7.96875 -4.554688 7.96875 -3.515625 C 7.96875 -2.390625 7.648438 -1.5 7.015625 -0.84375 C 6.378906 -0.1875 5.5 0.140625 4.375 0.140625 C 3.59375 0.140625 2.910156 -0.0351562 2.328125 -0.390625 C 1.753906 -0.753906 1.304688 -1.28125 0.984375 -1.96875 C 0.671875 -2.664062 0.515625 -3.503906 0.515625 -4.484375 Z M 4.328125 -1.640625 C 4.804688 -1.640625 5.171875 -1.796875 5.421875 -2.109375 C 5.679688 -2.429688 5.8125 -2.890625 5.8125 -3.484375 C 5.8125 -4.003906 5.691406 -4.410156 5.453125 -4.703125 C 5.210938 -4.992188 4.851562 -5.140625 4.375 -5.140625 C 3.925781 -5.140625 3.539062 -4.992188 3.21875 -4.703125 C 2.894531 -4.410156 2.734375 -4.070312 2.734375 -3.6875 C 2.734375 -3.113281 2.882812 -2.628906 3.1875 -2.234375 C 3.488281 -1.835938 3.867188 -1.640625 4.328125 -1.640625 Z M 4.328125 -1.640625 "/></g></g></g><g fill="#b3b3b3" fill-opacity="1"><g transform="translate(316.336108, 51.819145)"><g><path d="M 3.3125 -1.546875 C 3.0625 -0.578125 2.640625 0.570312 2.046875 1.90625 L 0.453125 1.90625 C 0.765625 0.625 1.007812 -0.582031 1.1875 -1.71875 L 3.203125 -1.71875 Z M 3.3125 -1.546875 "/></g></g></g><g fill="#b3b3b3" fill-opacity="1"><g transform="translate(320.622772, 51.819145)"><g><path d="M 7.5625 -8.1875 C 7.5625 -7.53125 7.359375 -6.96875 6.953125 -6.5 C 6.554688 -6.039062 6 -5.726562 5.28125 -5.5625 L 5.28125 -5.515625 C 6.125 -5.410156 6.765625 -5.148438 7.203125 -4.734375 C 7.640625 -4.328125 7.859375 -3.773438 7.859375 -3.078125 C 7.859375 -2.054688 7.488281 -1.265625 6.75 -0.703125 C 6.019531 -0.140625 4.972656 0.140625 3.609375 0.140625 C 2.460938 0.140625 1.445312 -0.046875 0.5625 -0.421875 L 0.5625 -2.328125 C 0.96875 -2.117188 1.414062 -1.945312 1.90625 -1.8125 C 2.40625 -1.6875 2.894531 -1.625 3.375 -1.625 C 4.101562 -1.625 4.644531 -1.75 5 -2 C 5.351562 -2.25 5.53125 -2.648438 5.53125 -3.203125 C 5.53125 -3.703125 5.328125 -4.050781 4.921875 -4.25 C 4.515625 -4.457031 3.867188 -4.5625 2.984375 -4.5625 L 2.1875 -4.5625 L 2.1875 -6.28125 L 3 -6.28125 C 3.820312 -6.28125 4.421875 -6.382812 4.796875 -6.59375 C 5.171875 -6.8125 5.359375 -7.179688 5.359375 -7.703125 C 5.359375 -8.503906 4.859375 -8.90625 3.859375 -8.90625 C 3.515625 -8.90625 3.160156 -8.84375 2.796875 -8.71875 C 2.441406 -8.601562 2.046875 -8.40625 1.609375 -8.125 L 0.578125 -9.671875 C 1.535156 -10.359375 2.679688 -10.703125 4.015625 -10.703125 C 5.109375 -10.703125 5.972656 -10.476562 6.609375 -10.03125 C 7.242188 -9.59375 7.5625 -8.976562 7.5625 -8.1875 Z M 7.5625 -8.1875 "/></g></g></g><g fill="#b3b3b3" fill-opacity="1"><g transform="translate(329.058988, 51.819145)"><g><path d="M 4.4375 -6.734375 C 5.457031 -6.734375 6.265625 -6.445312 6.859375 -5.875 C 7.460938 -5.300781 7.765625 -4.519531 7.765625 -3.53125 C 7.765625 -2.351562 7.398438 -1.445312 6.671875 -0.8125 C 5.953125 -0.175781 4.914062 0.140625 3.5625 0.140625 C 2.382812 0.140625 1.4375 -0.046875 0.71875 -0.421875 L 0.71875 -2.359375 C 1.101562 -2.148438 1.546875 -1.984375 2.046875 -1.859375 C 2.554688 -1.734375 3.035156 -1.671875 3.484375 -1.671875 C 4.847656 -1.671875 5.53125 -2.226562 5.53125 -3.34375 C 5.53125 -4.40625 4.820312 -4.9375 3.40625 -4.9375 C 3.15625 -4.9375 2.875 -4.910156 2.5625 -4.859375 C 2.257812 -4.804688 2.007812 -4.753906 1.8125 -4.703125 L 0.9375 -5.171875 L 1.328125 -10.546875 L 7.046875 -10.546875 L 7.046875 -8.65625 L 3.28125 -8.65625 L 3.09375 -6.59375 L 3.34375 -6.640625 C 3.632812 -6.703125 4 -6.734375 4.4375 -6.734375 Z M 4.4375 -6.734375 "/></g></g></g></svg>